<?xml version="1.0" encoding="utf-8"?>
<!-- Generator: Adobe Illustrator 25.3.1, SVG Export Plug-In . SVG Version: 6.00 Build 0)  -->
<svg version="1.1" id="Layer_1" xmlns="http://www.w3.org/2000/svg" xmlns:xlink="http://www.w3.org/1999/xlink" x="0px" y="0px"
	 viewBox="0 0 1242 583.2" style="enable-background:new 0 0 1242 583.2;" xml:space="preserve">
<style type="text/css">
	.st0{fill:#F1F1F1;}
	.st1{fill:#E6E6E6;}
	.st2{fill:#F2F2F2;}
	.st3{fill:#F47421;}
	.st4{fill:#3F3D56;}
	.st5{fill:#FFB7B7;}
	.st6{fill:#2F2E41;}
	.st7{fill:#CBCBCB;}
	.st8{fill:#F0F0F0;}
	.st9{fill:#FFFFFF;}
	.st10{fill:#E4E4E4;}
	.st11{fill:#F37630;}
	.st12{fill:#CACACA;}
</style>
<path class="st0" d="M223,581.2h264.3c4.4,0,8-3.6,8-8v-89.2c0-4.4-3.6-8-8-8H223c-4.4,0-8,3.6-8,8v89.2
	C215.1,577.6,218.6,581.2,223,581.2z"/>
<path id="b0cf38c7-358d-48dc-a444-e9782686dfa5-124" class="st1" d="M1146.6,535.1c-8,2.8-16.8,1.2-23.4-4.1
	c-8.2-6.9-10.8-18.2-12.8-28.7l-6.2-31l12.9,8.9c9.3,6.4,18.8,13,25.3,22.3c6.4,9.3,9.3,21.9,4.1,32"/>
<path id="acbbaa8b-0bc2-4bc9-96d7-93dd88f90f19-125" class="st2" d="M1144.6,574.8c1.6-11.9,3.3-23.9,2.2-35.9
	c-1-10.6-4.3-21-10.9-29.6c-3.5-4.5-7.8-8.4-12.6-11.4c-1.3-0.8-2.4,1.2-1.2,2c8.4,5.3,14.9,13.1,18.5,22.3c4,10.2,4.7,21.4,4,32.3
	c-0.4,6.6-1.3,13.1-2.2,19.7c-0.1,0.6,0.2,1.2,0.8,1.4C1143.8,575.8,1144.4,575.5,1144.6,574.8L1144.6,574.8z"/>
<path id="bed63620-84ae-4c66-a7c8-0d9b30f8c1e7-126" class="st1" d="M1132.9,555.8c-3.4,5.2-9.3,8.2-15.5,8
	c-7.9-0.4-14.4-5.9-20.3-11.1l-17.5-15.4l11.5-0.6c8.3-0.4,16.8-0.8,24.7,1.8c7.9,2.6,15.2,8.7,16.7,16.9"/>
<path id="fc4eb8ca-daad-4589-b224-2c71eec1c546-127" class="st2" d="M1149.2,581.7c-7.8-13.9-16.9-29.3-33.2-34.2
	c-4.5-1.4-9.3-1.9-14-1.4c-1.5,0.1-1.1,2.4,0.4,2.3c7.9-0.7,15.7,1.4,22.3,5.9c6.3,4.3,11.2,10.2,15.3,16.5
	c2.5,3.9,4.8,7.9,7.1,11.9C1147.8,583.9,1150,583,1149.2,581.7z"/>
<path id="ec83fa9a-7bb4-4b90-a90b-e1cec4444963-128" class="st1" d="M84.3,541.4c6.1,5.5,14.6,7.3,22.4,5
	c9.9-3.1,16.4-12.3,22.1-20.9l17-25.4l-14.9,3.2c-10.7,2.3-21.6,4.7-30.8,10.6S83.7,530,84.7,540.8"/>
<path id="e32935a9-e392-46b4-9a67-68c65f1cc9fa-129" class="st2" d="M72.2,579.7c5.3-20.3,11.7-42.9,30.7-54.6
	c5.3-3.3,11.1-5.5,17.2-6.5c1.9-0.3,2.2,2.7,0.3,3c-10.2,1.8-19.5,7.1-26.3,15c-6.5,7.5-10.8,16.7-13.9,26.1
	c-1.9,5.8-3.5,11.6-5,17.5C74.8,582.1,71.7,581.6,72.2,579.7z"/>
<path class="st0" d="M510.8,355.1h264.3c4.4,0,8-3.6,8-8V258c0-4.4-3.6-8-8-8H510.8c-4.4,0-8,3.6-8,8v89.2
	C502.9,351.5,506.4,355.1,510.8,355.1z"/>
<rect x="671.7" y="273.9" class="st3" width="70.1" height="8"/>
<circle class="st3" cx="579.3" cy="278.7" r="4.8"/>
<circle class="st3" cx="563.4" cy="278.7" r="4.8"/>
<circle class="st3" cx="547.5" cy="278.7" r="4.8"/>
<path class="st0" d="M510.8,468.1h264.3c4.4,0,8-3.6,8-8V371c0-4.4-3.6-8-8-8H510.8c-4.4,0-8,3.6-8,8v89.2
	C502.9,464.6,506.4,468.1,510.8,468.1z"/>
<rect x="671.7" y="386.9" class="st3" width="70.1" height="8"/>
<circle class="st3" cx="579.3" cy="391.7" r="4.8"/>
<circle class="st3" cx="563.4" cy="391.7" r="4.8"/>
<circle class="st3" cx="547.5" cy="391.7" r="4.8"/>
<path class="st0" d="M510.8,581.2h264.3c4.4,0,8-3.6,8-8v-89.2c0-4.4-3.6-8-8-8H510.8c-4.4,0-8,3.6-8,8v89.2
	C502.9,577.6,506.4,581.2,510.8,581.2z"/>
<rect x="671.7" y="500" class="st3" width="70.1" height="8"/>
<circle class="st3" cx="579.3" cy="504.8" r="4.8"/>
<circle class="st3" cx="563.4" cy="504.8" r="4.8"/>
<circle class="st3" cx="547.5" cy="504.8" r="4.8"/>
<path class="st4" d="M610.5,162.9l0.3-0.2l0,0c1.6-1.2,3.8-0.8,5,0.7v0l59.5,80.1h6.5V242c0-0.8,0.6-1.4,1.4-1.4h3.9
	c0.8,0,1.4,0.6,1.4,1.4v1.5h2.3V242c0-0.8,0.6-1.4,1.4-1.4h3.9c0.8,0,1.4,0.6,1.4,1.4v1.5h2.3V242c0-0.8,0.6-1.4,1.4-1.4h3.9
	c0.8,0,1.4,0.6,1.4,1.4v1.5h2.3V242c0-0.8,0.6-1.4,1.4-1.4h3.9c0.8,0,1.4,0.6,1.4,1.4v1.5h2.3V242c0-0.8,0.6-1.4,1.4-1.4h3.9
	c0.8,0,1.4,0.6,1.4,1.4c0,0,0,0,0,0v1.5h2.3V242c0-0.8,0.6-1.4,1.4-1.4h3.9c0.8,0,1.4,0.6,1.4,1.4v1.5h2.3V242
	c0-0.8,0.6-1.4,1.4-1.4h3.9c0.8,0,1.4,0.6,1.4,1.4v1.5h2.3V242c0-0.8,0.6-1.4,1.4-1.4h3.9c0.8,0,1.4,0.6,1.4,1.4v1.5h2.3V242
	c0-0.8,0.6-1.4,1.4-1.4h3.9c0.8,0,1.4,0.6,1.4,1.4v1.5h2.3V242c0-0.8,0.6-1.4,1.4-1.4h3.9c0.8,0,1.4,0.6,1.4,1.4v1.5h2.8
	c2,0,3.6,1.6,3.6,3.6c0,0,0,0,0,0v3.4c0,2-1.6,3.6-3.6,3.6c0,0,0,0,0,0h-96.8c-2.5,0-4.7-1.8-5.2-4.2l0,0l-60.9-82l0,0
	C608.6,166.3,608.9,164.1,610.5,162.9z"/>
<polygon class="st5" points="986.5,550.8 974.5,557 945,513.5 962.8,504.5 "/>
<path class="st6" d="M987.6,545.3l-23.7,12.1l0,0c-8.3,4.3-11.6,14.5-7.4,22.8l0.3,0.5l38.8-19.8L987.6,545.3z"/>
<polygon class="st5" points="847.7,567.7 834.2,567.7 827.8,515.6 847.7,515.6 "/>
<path class="st6" d="M851.1,563.2l-26.6,0h0c-9.4,0-16.9,7.6-16.9,16.9v0.6l43.5,0L851.1,563.2z"/>
<path class="st6" d="M910.8,142.9c0,0,9-6.9,9,10l1.4,55.9l-15.9,52.8l-9.3-17.1l3.8-37.1L910.8,142.9z"/>
<path class="st6" d="M814.1,295.8c0,0-10.5,51.1,2.8,93l7.3,161.1l26.9-2.1l9.4-119.5l9.1-59.4l18.9,54.2l62.2,114.6l28.7-22.4
	c0,0-31.8-86.6-55.2-104.8l-11.8-134L814.1,295.8z"/>
<ellipse transform="matrix(0.8775 -0.4797 0.4797 0.8775 82.6062 411.1842)" class="st5" cx="846" cy="43.9" rx="30.7" ry="30.7"/>
<path class="st6" d="M848.2,50.4c-3.7,0.5-6.5-3.3-7.7-6.8s-2.3-7.5-5.5-9.4c-4.4-2.6-10,0.5-15-0.3c-5.6-1-9.3-6.9-9.6-12.7
	s2-11.2,4.2-16.5l0.8,6.5c-0.2-4.5,1.9-8.8,5.7-11.4l-1,9.6c0.9-5.6,6.1-9.3,11.7-8.4c0,0,0,0,0,0l-0.2,5.7c6.5-0.8,13.1-1.6,19.6-1
	s13.1,2.7,18.1,7c7.4,6.4,10.1,17,9.2,26.8s-4.9,19-9.1,27.8c-1.1,2.2-2.5,4.8-5,5c-2.2,0.3-4.2-1.6-4.9-3.7
	c-0.5-2.2-0.5-4.4,0.1-6.6c0.6-3.3,1.4-6.7,0.8-10c-0.6-3.3-3-6.6-6.3-7s-6.7,3.4-5.1,6.3L848.2,50.4z"/>
<polygon class="st7" points="812.2,309.5 914.6,302.9 906.9,270.9 813.3,291.8 "/>
<path class="st6" d="M875.4,85.8l-6.4-8.9c0,0-7.2,2.4-26.4,12l-1.4,8.4l-33.4,205.3l60.7-2.6l16.5-0.4l5.4-12.1l6.7,11.9l16.1-0.3
	l16.4-9.5l-16.2-49.5l-5.2-45.2l8.1-42.6c0,0,10.2-39.1-29-60.2L875.4,85.8z"/>
<path class="st5" d="M738.6,241.2c5.6,1.4,11.3-2,12.7-7.6c0.2-0.6,0.3-1.2,0.3-1.8l36-9.6l-14.5-12.9l-32,11.1
	c-5.8,0-10.6,4.7-10.6,10.5C730.6,235.8,733.9,240,738.6,241.2L738.6,241.2z"/>
<path class="st6" d="M754.8,235.7c1.5,0.8,3.3,1,5,0.4l59.2-22.5c14.4-5.1,26.5-15.3,34-28.7l24.7-44c7.3-8.1,6.6-20.6-1.5-27.9
	s-20.6-6.6-27.9,1.5c0,0,0,0,0,0.1l-42.7,67.7l-53.8,31.5c-2.2,1.4-3.2,4-2.6,6.5l2.7,11.3c0.3,1.2,0.9,2.3,1.9,3.2
	C753.9,235.2,754.3,235.5,754.8,235.7z"/>
<path class="st7" d="M1.3,582.6h1239.4c0.7,0,1.3-0.6,1.3-1.3s-0.6-1.3-1.3-1.3H1.3c-0.7,0-1.3,0.6-1.3,1.3S0.6,582.6,1.3,582.6z"/>
<g>
	<path class="st8" d="M433.3,179.4c1.6-6.5,0.1-14.1-5.1-18.3c-0.1,7.3-2.8,14.3-7.5,19.7c-1.8,2.1-4.1,4.3-4.2,7.1
		c-0.1,1.7,0.8,3.4,2,4.7c1.2,1.3,2.7,2.3,4.1,3.2l0.2,0.4C427.5,191.5,431.7,185.9,433.3,179.4z"/>
	<path class="st9" d="M428.2,161.2c2,5.2,2.3,10.8,0.8,16.2c-0.3,1.2-0.8,2.3-1.4,3.3c-0.6,1-1.5,1.7-2.6,2.2c-1,0.5-2,0.9-2.8,1.6
		c-0.8,0.8-1.3,1.8-1.3,3c0,1.4,0.4,2.7,0.9,4c0.6,1.4,1.2,2.9,1,4.5c0,0.2,0.3,0.2,0.3,0c0.2-2.7-1.6-5-1.9-7.6
		c-0.1-1.2,0.1-2.5,1-3.4c0.8-0.8,1.9-1.2,2.9-1.7c1-0.5,1.9-1.2,2.6-2.1c0.7-1,1.2-2.1,1.5-3.2c0.8-2.6,1.1-5.2,1-7.9
		c-0.1-3.1-0.7-6.1-1.8-8.9C428.4,160.9,428.1,161,428.2,161.2L428.2,161.2z"/>
	<path class="st9" d="M429.6,175.7c1.9,0.2,3.7-0.9,4.3-2.8c0.1-0.2-0.2-0.3-0.3-0.1c-0.5,1.7-2.2,2.8-4,2.6
		C429.4,175.4,429.4,175.7,429.6,175.7L429.6,175.7z"/>
	<path class="st9" d="M425.6,182.7c-1.2-1.5-1.8-3.4-1.6-5.3c0-0.2-0.3-0.2-0.3,0c-0.2,2,0.5,4,1.7,5.5
		C425.5,183.1,425.7,182.9,425.6,182.7z"/>
	<path class="st9" d="M429.7,167.1c-0.7,0.1-1.5-0.3-1.9-0.9c-0.1-0.2-0.3,0-0.2,0.2c0.5,0.7,1.3,1,2.1,1c0.1,0,0.1-0.1,0.2-0.1
		C429.9,167.2,429.8,167.1,429.7,167.1L429.7,167.1z"/>
	<path class="st8" d="M406,165.3c0.1,0.1,0.1,0.2,0.2,0.3c0.9,1.3,1.8,2.7,2.5,4.1c0.1,0.1,0.1,0.2,0.2,0.3c1.7,3.5,2.7,7.2,3,11
		c0.1,1.5,0.1,3.1,0,4.6c-0.2,2.1-0.5,4.4,0.1,6.3c0.1,0.2,0.1,0.4,0.2,0.6l10.2,3.9c0,0,0.1,0,0.1,0l0.4,0.2c0-0.1,0-0.2,0-0.2
		c0,0,0-0.1,0-0.1c0,0,0-0.1,0-0.1c0,0,0,0,0,0c0,0,0-0.1,0-0.1c0.1-0.5,0.1-0.9,0.2-1.4c0,0,0,0,0,0c0.4-3.5,0.4-7,0-10.5
		c0-0.1,0-0.2,0-0.3c-0.2-1.6-0.6-3.1-1-4.6c-0.3-0.8-0.6-1.6-0.9-2.4c-0.9-2-2.1-3.9-3.5-5.6c-2.9-3.3-6.9-5.7-11.2-6
		C406.3,165.3,406.1,165.3,406,165.3z"/>
	<path class="st9" d="M406,165.5c4.7,2.9,8.3,7.3,10.4,12.4c0.5,1.1,0.8,2.3,0.9,3.4c0.1,1.2-0.2,2.3-0.7,3.3c-0.5,1-1.1,1.9-1.3,3
		c-0.2,1.1,0,2.3,0.7,3.2c0.8,1.1,2,1.9,3.2,2.6c1.3,0.8,2.7,1.6,3.5,2.9c0.1,0.2,0.3,0,0.2-0.2c-1.5-2.3-4.3-3-6.1-4.9
		c-0.8-0.9-1.4-2.1-1.2-3.3c0.2-1.1,0.8-2.1,1.3-3.1c0.5-1,0.8-2.1,0.8-3.2c0-1.2-0.3-2.4-0.7-3.5c-0.9-2.5-2.3-4.8-3.9-6.9
		c-1.9-2.4-4.2-4.4-6.8-6.1C406,165.1,405.8,165.4,406,165.5L406,165.5z"/>
	<path class="st9" d="M415.8,176.2c1.7-1,2.4-3,1.7-4.8c-0.1-0.2-0.3-0.1-0.3,0.1c0.6,1.7-0.1,3.6-1.6,4.5
		C415.5,176,415.7,176.3,415.8,176.2z"/>
	<path class="st9" d="M416.9,184.2c-1.9-0.5-3.5-1.7-4.5-3.3c-0.1-0.2-0.3,0-0.2,0.2c1.1,1.7,2.7,2.9,4.7,3.4
		C417,184.5,417,184.2,416.9,184.2z"/>
	<path class="st9" d="M410.8,169.2c-0.6,0.5-1.3,0.7-2.1,0.5c-0.2,0-0.2,0.2-0.1,0.3c0.8,0.2,1.7,0,2.3-0.5c0.1,0,0.1-0.1,0-0.2
		C411,169.2,410.9,169.2,410.8,169.2L410.8,169.2z"/>
	<path class="st10" d="M392.6,311.9c-34.1,0-61.9-27.8-61.9-61.9s27.8-61.9,61.9-61.9c3.6,0,7.2,0.3,10.8,0.9c0.2,0,0.3,0.2,0.3,0.4
		s-0.2,0.3-0.4,0.3c0,0,0,0,0,0c-3.5-0.6-7.1-0.9-10.6-0.9c-33.8,0-61.2,27.5-61.2,61.2s27.5,61.2,61.2,61.2s61.2-27.5,61.2-61.2
		c0-15.3-5.7-30-16-41.2c-0.1-0.1-0.1-0.4,0-0.5c0.1-0.1,0.4-0.1,0.5,0c10.4,11.4,16.2,26.3,16.1,41.7
		C454.5,284.1,426.7,311.9,392.6,311.9z"/>
	<circle class="st11" cx="419.9" cy="197.1" r="12.2"/>
	<path class="st9" d="M418.2,203.5c-0.4,0-0.8-0.2-1.1-0.5l-3.3-4.5c-0.5-0.6-0.3-1.5,0.3-1.9s1.5-0.3,1.9,0.3l2.2,2.9l5.6-8.4
		c0.4-0.6,1.3-0.8,1.9-0.4c0.6,0.4,0.8,1.3,0.4,1.9l-6.7,10C419.1,203.2,418.7,203.5,418.2,203.5
		C418.2,203.5,418.2,203.5,418.2,203.5z"/>
	<path class="st4" d="M391,240.4l-18.9-52.5l0.5-0.2l-3.5-9.7l-0.5,0.2l-5.8-16.1c-0.9-2.5-3.7-3.8-6.2-2.9c0,0,0,0,0,0l-34.1,12.3
		c-2.5,0.9-3.8,3.7-2.9,6.2c0,0,0,0,0,0l4,11.2l-0.8,0.3l2.6,6.7l0.6-0.2l0.5,1.5l-0.6,0.2l2.6,6.7l0.5-0.2l18.7,52.1
		c0.9,2.5,3.7,3.8,6.2,2.9c0,0,0,0,0,0l34.1-12.3C390.6,245.7,391.9,242.9,391,240.4z"/>
	<path class="st9" d="M352.1,257.2c-1,0-1.9-0.6-2.2-1.5l-28.5-79.2c-0.4-1.2,0.2-2.6,1.4-3l7.3-2.6l0,0.3c-0.1,1.5,1.1,2.7,2.6,2.8
		c0.3,0,0.7,0,1-0.2l16.1-5.8c0.8-0.4,1.4-1.1,1.5-1.9c0.2-0.8-0.1-1.7-0.6-2.3l-0.2-0.2l7.5-2.7c1.2-0.4,2.6,0.2,3,1.4l27.1,75.5
		c1.2,3.2-0.5,6.8-3.7,7.9L352.9,257C352.6,257.1,352.4,257.2,352.1,257.2z"/>
	<circle class="st11" cx="349.3" cy="191.8" r="9.2"/>
	<path class="st1" d="M372.2,205.2l-32,11.5c-0.4,0.2-0.9-0.1-1-0.5c-0.2-0.4,0.1-0.9,0.5-1c0,0,0,0,0,0l32-11.5
		c0.4-0.2,0.9,0.1,1,0.5C372.8,204.6,372.6,205.1,372.2,205.2z"/>
	<path class="st1" d="M362.7,212.5l-10.5,3.8c-0.4,0.2-0.9-0.1-1-0.5c-0.2-0.4,0.1-0.9,0.5-1c0,0,0,0,0,0l10.5-3.8
		c0.4-0.2,0.9,0.1,1,0.5C363.3,211.9,363.1,212.4,362.7,212.5z"/>
	<path class="st1" d="M365.2,219.5l-10.5,3.8c-0.4,0.2-0.9-0.1-1-0.5c-0.2-0.4,0.1-0.9,0.5-1c0,0,0,0,0,0l10.5-3.8
		c0.4-0.2,0.9,0.1,1,0.5C365.8,218.9,365.6,219.3,365.2,219.5L365.2,219.5z"/>
	<path class="st1" d="M366.5,223l-10.5,3.8c-0.4,0.2-0.9-0.1-1-0.5c-0.2-0.4,0.1-0.9,0.5-1c0,0,0,0,0,0l10.5-3.8
		c0.4-0.2,0.9,0.1,1,0.5C367.1,222.4,366.9,222.9,366.5,223C366.5,223,366.5,223,366.5,223L366.5,223z"/>
	<path class="st1" d="M369.8,213.8l-22.3,8c-0.4,0.2-0.9-0.1-1-0.5s0.1-0.9,0.5-1c0,0,0,0,0,0l22.3-8c0.4-0.2,0.9,0.1,1,0.5
		C370.5,213.2,370.3,213.7,369.8,213.8C369.8,213.8,369.8,213.8,369.8,213.8z"/>
	<path class="st11" d="M365.3,231.7l-3.8,1.4c-0.7,0.3-1.5-0.1-1.8-0.8c-0.3-0.7,0.1-1.5,0.8-1.8l3.8-1.4c0.7-0.3,1.5,0.1,1.8,0.8
		C366.4,230.7,366.1,231.4,365.3,231.7z"/>
	<circle class="st9" cx="335.3" cy="170.6" r="0.5"/>
	<path class="st8" d="M274.2,200.5c6-7,15.6-11.4,24.5-9.1c-8,6-13.7,14.6-15.9,24.3c-0.9,3.8-1.4,8-4.5,10.4
		c-1.9,1.5-4.5,1.9-6.8,1.6c-2.4-0.3-4.7-1.1-6.9-2l-0.6,0.1C265.4,216.6,268.2,207.5,274.2,200.5z"/>
	<path class="st9" d="M298.7,191.5c-7.4,2-13.9,6.2-18.7,12.1c-1.1,1.3-1.9,2.7-2.5,4.2c-0.6,1.5-0.7,3.1-0.4,4.7
		c0.2,1.5,0.6,2.9,0.5,4.4c-0.2,1.6-1,3-2.2,3.9c-1.5,1.2-3.4,1.7-5.2,2.2c-2,0.5-4.2,1-5.8,2.5c-0.2,0.2-0.4-0.1-0.3-0.3
		c2.8-2.4,6.9-2.2,10.1-4c1.5-0.8,2.7-2.1,3-3.9c0.2-1.5-0.2-3-0.4-4.5c-0.3-1.5-0.2-3.1,0.2-4.6c0.5-1.5,1.3-3,2.4-4.3
		c2.3-2.9,5-5.4,8-7.5c3.5-2.4,7.3-4.2,11.4-5.2C298.9,191.1,298.9,191.5,298.7,191.5L298.7,191.5z"/>
	<path class="st9" d="M281.4,201.6c-1.8-1.9-2-4.9-0.3-7c0.2-0.2,0.5,0,0.3,0.2c-1.5,2-1.4,4.7,0.3,6.5
		C281.9,201.6,281.6,201.8,281.4,201.6L281.4,201.6z"/>
	<path class="st9" d="M276.8,211.8c2.6,0.1,5.2-0.8,7.2-2.5c0.2-0.2,0.5,0.1,0.3,0.3c-2.1,1.8-4.8,2.7-7.5,2.6
		C276.5,212.2,276.6,211.8,276.8,211.8L276.8,211.8z"/>
	<path class="st9" d="M290.8,194.5c0.5,0.9,1.5,1.4,2.5,1.5c0.3,0,0.2,0.4,0,0.4c-1.1,0-2.2-0.7-2.8-1.6c-0.1-0.1-0.1-0.2,0-0.3
		C290.6,194.4,290.7,194.4,290.8,194.5L290.8,194.5z"/>
	<path class="st8" d="M311.9,219.5c-0.2,0-0.3,0-0.5,0c-2.2,0-4.4,0.2-6.5,0.5c-0.2,0-0.3,0.1-0.5,0.1c-5.2,0.9-10.2,2.8-14.7,5.5
		c-1.8,1.1-3.5,2.3-5.1,3.7c-2.2,1.9-4.5,4.1-7.1,5.1c-0.3,0.1-0.6,0.2-0.8,0.3l-12.5-8.2c0,0,0-0.1-0.1-0.1l-0.5-0.3
		c0.1-0.1,0.2-0.2,0.2-0.2c0,0,0.1-0.1,0.1-0.1c0,0,0.1-0.1,0.1-0.1c0,0,0,0,0,0c0,0,0.1-0.1,0.1-0.1c0.5-0.4,0.9-0.9,1.4-1.3
		c0,0,0,0,0,0c3.6-3.2,7.5-6.2,11.7-8.4c0.1-0.1,0.3-0.1,0.4-0.2c1.9-1,3.9-1.9,5.9-2.6c1.1-0.4,2.3-0.7,3.4-1c3-0.7,6-0.9,9.1-0.6
		c6.1,0.6,11.9,3.1,15.7,7.7C311.7,219.3,311.8,219.4,311.9,219.5z"/>
	<path class="st9" d="M311.8,219.7c-7.1-2.9-14.8-3.4-22.2-1.6c-1.6,0.4-3.1,1-4.5,1.8c-1.3,0.9-2.4,2.1-3.2,3.5
		c-0.7,1.3-1.3,2.7-2.3,3.9c-1.1,1.1-2.6,1.8-4.1,1.8c-1.9,0-3.7-0.7-5.5-1.4c-1.9-0.8-4-1.7-6.1-1.5c-0.3,0-0.3-0.4,0-0.4
		c3.7-0.2,6.8,2.4,10.5,2.8c1.7,0.2,3.4-0.1,4.7-1.3c1.1-1.1,1.7-2.5,2.4-3.9c0.7-1.4,1.7-2.6,3-3.5c1.4-0.9,2.9-1.6,4.4-2
		c3.6-1,7.2-1.4,10.9-1.2c4.2,0.2,8.3,1.1,12.2,2.7C312.2,219.4,312,219.8,311.8,219.7L311.8,219.7z"/>
	<path class="st9" d="M291.9,217.3c-0.3-2.6,1.4-5.1,4-5.8c0.3-0.1,0.4,0.3,0.1,0.4c-2.4,0.7-4,3-3.7,5.4
		C292.4,217.6,292,217.6,291.9,217.3L291.9,217.3z"/>
	<path class="st9" d="M282.2,222.7c2,1.7,4.6,2.5,7.3,2.4c0.3,0,0.3,0.4,0,0.4c-2.7,0.2-5.4-0.7-7.5-2.5
		C281.7,222.8,282,222.5,282.2,222.7L282.2,222.7z"/>
	<path class="st9" d="M303.7,217.3c-0.1,1,0.3,2,1.1,2.7c0.2,0.2-0.1,0.5-0.3,0.3c-0.9-0.7-1.4-1.8-1.2-3c0-0.1,0.1-0.2,0.2-0.2
		C303.6,217.1,303.7,217.2,303.7,217.3z"/>
	<path class="st8" d="M452.8,335.1c6.5,1.6,14.1,0.1,18.3-5.1c-7.3-0.1-14.3-2.8-19.7-7.5c-2.1-1.8-4.3-4.1-7.1-4.2
		c-1.7-0.1-3.4,0.8-4.7,2c-1.3,1.2-2.3,2.7-3.2,4.1l-0.4,0.2C440.8,329.3,446.3,333.5,452.8,335.1z"/>
	<path class="st9" d="M471,330c-5.2,2-10.8,2.3-16.2,0.8c-1.2-0.3-2.3-0.8-3.3-1.4c-1-0.6-1.7-1.5-2.2-2.6c-0.5-1-0.9-2-1.6-2.8
		c-0.8-0.8-1.8-1.3-3-1.3c-1.4,0-2.7,0.4-4,0.9c-1.4,0.6-2.9,1.2-4.5,1c-0.2,0-0.2,0.3,0,0.3c2.7,0.2,5-1.6,7.6-1.9
		c1.2-0.1,2.5,0.1,3.4,1c0.8,0.8,1.2,1.9,1.7,2.9c0.5,1,1.2,1.9,2.1,2.6c1,0.7,2.1,1.2,3.2,1.5c2.6,0.8,5.2,1.1,7.9,1
		c3.1-0.1,6.1-0.7,8.9-1.8C471.4,330.2,471.2,329.9,471,330L471,330z"/>
	<path class="st9" d="M456.6,331.4c-0.2,1.9,0.9,3.7,2.8,4.3c0.2,0.1,0.3-0.2,0.1-0.3c-1.7-0.5-2.8-2.2-2.6-4
		C456.9,331.2,456.6,331.2,456.6,331.4L456.6,331.4z"/>
	<path class="st9" d="M449.5,327.4c1.5-1.2,3.4-1.8,5.3-1.6c0.2,0,0.2-0.3,0-0.3c-2-0.2-4,0.5-5.5,1.7
		C449.2,327.3,449.4,327.5,449.5,327.4L449.5,327.4z"/>
	<path class="st9" d="M465.1,331.6c-0.1-0.7,0.3-1.5,0.9-1.9c0.2-0.1,0-0.3-0.2-0.2c-0.7,0.5-1,1.3-1,2.1c0,0.1,0.1,0.1,0.1,0.2
		C465.1,331.7,465.1,331.6,465.1,331.6L465.1,331.6z"/>
	<path class="st8" d="M466.9,307.8c-0.1,0.1-0.2,0.1-0.3,0.2c-1.3,0.9-2.7,1.8-4.1,2.5c-0.1,0.1-0.2,0.1-0.3,0.2
		c-3.5,1.7-7.2,2.7-11,3c-1.5,0.1-3.1,0.1-4.6,0c-2.1-0.2-4.4-0.5-6.3,0.1c-0.2,0.1-0.4,0.1-0.6,0.2l-3.9,10.2c0,0,0,0.1,0,0.1
		l-0.2,0.4c0.1,0,0.2,0,0.2,0c0,0,0.1,0,0.1,0c0,0,0.1,0,0.1,0c0,0,0,0,0,0c0,0,0.1,0,0.1,0c0.5,0.1,0.9,0.1,1.4,0.2c0,0,0,0,0,0
		c3.5,0.4,7,0.4,10.5,0c0.1,0,0.2,0,0.3,0c1.6-0.2,3.1-0.6,4.6-1c0.8-0.3,1.6-0.6,2.4-0.9c2-0.9,3.9-2.1,5.6-3.5
		c3.3-2.9,5.7-6.9,6-11.2C466.9,308.1,466.9,308,466.9,307.8z"/>
	<path class="st9" d="M466.8,307.8c-2.9,4.7-7.3,8.3-12.4,10.4c-1.1,0.5-2.3,0.8-3.4,0.9c-1.2,0.1-2.3-0.2-3.3-0.7
		c-1-0.5-1.9-1.1-3-1.3c-1.1-0.2-2.3,0-3.2,0.7c-1.1,0.8-1.9,2-2.6,3.2c-0.8,1.3-1.6,2.7-2.9,3.5c-0.2,0.1,0,0.3,0.2,0.2
		c2.3-1.5,3-4.3,4.9-6.1c0.9-0.8,2.1-1.4,3.3-1.2c1.1,0.2,2.1,0.8,3.1,1.3c1,0.5,2.1,0.8,3.2,0.8c1.2,0,2.4-0.3,3.5-0.7
		c2.5-0.9,4.8-2.3,6.9-3.9c2.4-1.9,4.4-4.2,6.1-6.8C467.2,307.8,466.9,307.7,466.8,307.8L466.8,307.8z"/>
	<path class="st9" d="M456.1,317.6c1,1.7,3,2.4,4.8,1.7c0.2-0.1,0.1-0.3-0.1-0.3c-1.7,0.6-3.6-0.1-4.5-1.6
		C456.2,317.3,456,317.5,456.1,317.6z"/>
	<path class="st9" d="M448.1,318.7c0.5-1.9,1.7-3.5,3.3-4.5c0.2-0.1,0-0.3-0.2-0.2c-1.7,1.1-2.9,2.7-3.4,4.7
		C447.7,318.8,448,318.9,448.1,318.7L448.1,318.7z"/>
	<path class="st9" d="M463,312.6c-0.5-0.6-0.7-1.3-0.5-2.1c0-0.2-0.2-0.2-0.3-0.1c-0.2,0.8,0,1.7,0.5,2.3c0,0.1,0.1,0.1,0.2,0
		C463.1,312.8,463.1,312.7,463,312.6L463,312.6z"/>
	<path class="st4" d="M478.8,272.8l-9.9,16.7l0.4,0.2l-3.4,6.4l-0.7-0.4l-2.2,3.7l0.5,0.3l-3.6,6.2l-0.6-0.4l-32.3,54.3
		c-1.8,3-5.6,3.9-8.6,2.2l-60-35.7c-3-1.8-3.9-5.6-2.2-8.6l51.7-87.1c1.8-3,5.6-3.9,8.6-2.2l60,35.7
		C479.6,266,480.6,269.8,478.8,272.8z"/>
	<path class="st9" d="M420.7,358.6l-60.2-35.8c-0.9-0.5-1.2-1.7-0.7-2.6l52.1-87.6c0.5-0.9,1.7-1.2,2.6-0.7l60.2,35.8
		c0.9,0.5,1.2,1.7,0.7,2.6L423.3,358C422.8,358.9,421.6,359.2,420.7,358.6z"/>
	<circle class="st9" cx="445.4" cy="247.9" r="0.5"/>
	<path class="st1" d="M442.1,311.2l-50.3-29.9c-0.7-0.4-0.9-1.2-0.5-1.9s1.2-0.9,1.9-0.5c0,0,0,0,0,0l50.3,29.9
		c0.7,0.4,0.9,1.2,0.5,1.9C443.6,311.4,442.8,311.6,442.1,311.2C442.1,311.2,442.1,311.2,442.1,311.2z"/>
	<path class="st1" d="M422,306.6l-16.5-9.8c-0.7-0.4-0.9-1.2-0.5-1.9c0.4-0.7,1.2-0.9,1.9-0.5c0,0,0,0,0,0l16.5,9.8
		c0.7,0.4,0.9,1.2,0.5,1.9C423.6,306.7,422.7,306.9,422,306.6z"/>
	<path class="st1" d="M415.5,317.5l-16.5-9.8c-0.7-0.4-0.9-1.2-0.5-1.9c0.4-0.7,1.2-0.9,1.9-0.5l16.5,9.8c0.7,0.4,0.9,1.2,0.5,1.9
		S416.2,317.9,415.5,317.5C415.5,317.5,415.5,317.5,415.5,317.5z"/>
	<path class="st1" d="M412.2,323.1l-16.5-9.8c-0.7-0.4-0.9-1.2-0.5-1.9c0.4-0.7,1.2-0.9,1.9-0.5l0,0l16.5,9.8
		c0.7,0.4,0.9,1.2,0.5,1.9S412.9,323.5,412.2,323.1C412.2,323.1,412.2,323.1,412.2,323.1L412.2,323.1z"/>
	<path class="st1" d="M428.1,317.5L393,296.6c-0.7-0.4-0.9-1.2-0.5-1.9c0.4-0.7,1.2-0.9,1.9-0.5l35.1,20.9c0.7,0.4,0.9,1.2,0.5,1.9
		C429.6,317.6,428.8,317.9,428.1,317.5C428.1,317.5,428.1,317.5,428.1,317.5z"/>
	<path class="st11" d="M421.4,344.1l-6-3.6c-1.1-0.7-1.5-2.1-0.8-3.2c0.7-1.1,2.1-1.5,3.2-0.8l6,3.6c1.1,0.7,1.5,2.1,0.8,3.2
		C424,344.4,422.6,344.8,421.4,344.1L421.4,344.1z"/>
	<circle class="st11" cx="432.6" cy="273.9" r="12.3"/>
	<path class="st12" d="M230.8,323.9h166.6v-96.4c0-1.5-1.2-2.7-2.7-2.7H233.5c-1.5,0-2.7,1.2-2.7,2.7V323.9z"/>
	<rect x="236" y="228.5" class="st9" width="156.3" height="88.7"/>
	<path class="st4" d="M230.7,321.3v11.9c0,2.1,1.7,3.8,3.8,3.8c0,0,0,0,0,0h61.5v23.5h-0.8c-0.3,0-0.5,0.2-0.5,0.5c0,0,0,0,0,0v1.6
		c0,0.3,0.2,0.5,0.5,0.5c0,0,0,0,0,0h38.2c0.3,0,0.5-0.2,0.5-0.5c0,0,0,0,0,0v-1.6c0-0.3-0.2-0.5-0.5-0.5c0,0,0,0,0,0h-0.8v-23.5
		h61.5c2.1,0,3.8-1.7,3.8-3.8v0v-11.9L230.7,321.3z"/>
	<path class="st1" d="M369.6,258.2h-74c-1,0-1.8-0.8-1.8-1.8c0-1,0.8-1.8,1.8-1.8h74c1,0,1.8,0.8,1.8,1.8
		C371.4,257.4,370.6,258.2,369.6,258.2z"/>
	<path class="st1" d="M344.8,266.1h-24.3c-1,0-1.8-0.8-1.8-1.8c0-1,0.8-1.8,1.8-1.8h24.3c1,0,1.8,0.8,1.8,1.8
		C346.6,265.3,345.8,266.1,344.8,266.1z"/>
	<path class="st1" d="M344.8,282.2h-24.3c-1,0-1.8-0.8-1.8-1.8c0-1,0.8-1.8,1.8-1.8h24.3c1,0,1.8,0.8,1.8,1.8
		C346.6,281.4,345.8,282.2,344.8,282.2z"/>
	<path class="st1" d="M344.8,290.5h-24.3c-1,0-1.8-0.8-1.8-1.8c0-1,0.8-1.8,1.8-1.8c0,0,0,0,0,0h24.3c1,0,1.8,0.8,1.8,1.8
		C346.6,289.7,345.8,290.5,344.8,290.5C344.8,290.5,344.8,290.5,344.8,290.5z"/>
	<path class="st1" d="M358.5,274h-51.7c-1,0-1.8-0.8-1.8-1.8c0-1,0.8-1.8,1.8-1.8h51.7c1,0,1.8,0.8,1.8,1.8
		C360.2,273.3,359.4,274,358.5,274z"/>
	<path class="st11" d="M368.4,307.4h-8.8c-1.7,0-3-1.3-3-3s1.3-3,3-3l0,0h8.8c1.7,0,3,1.3,3,3S370.1,307.4,368.4,307.4z"/>
	<circle class="st11" cx="272.3" cy="270.3" r="15.4"/>
	<circle class="st9" cx="314" cy="226" r="0.6"/>
</g>
<path class="st0" d="M223,468.1h264.3c4.4,0,8-3.6,8-8V371c0-4.4-3.6-8-8-8H223c-4.4,0-8,3.6-8,8v89.2
	C215.1,464.6,218.6,468.1,223,468.1z"/>
<rect x="383.8" y="386.9" class="st3" width="70.1" height="8"/>
<circle class="st3" cx="291.5" cy="391.7" r="4.8"/>
<circle class="st3" cx="275.6" cy="391.7" r="4.8"/>
<circle class="st3" cx="259.6" cy="391.7" r="4.8"/>
<rect x="383.8" y="500" class="st3" width="70.1" height="8"/>
<circle class="st3" cx="291.5" cy="504.8" r="4.8"/>
<circle class="st3" cx="275.6" cy="504.8" r="4.8"/>
<circle class="st3" cx="259.6" cy="504.8" r="4.8"/>
</svg>
