<?xml version="1.0" encoding="utf-8"?>
<!-- Generator: Adobe Illustrator 25.3.1, SVG Export Plug-In . SVG Version: 6.00 Build 0)  -->
<svg version="1.1" id="Layer_1" xmlns="http://www.w3.org/2000/svg" xmlns:xlink="http://www.w3.org/1999/xlink" x="0px" y="0px"
	 viewBox="0 0 1242 593.7" style="enable-background:new 0 0 1242 593.7;" xml:space="preserve">
<style type="text/css">
	.st0{fill:#F1F1F1;}
	.st1{fill:#E6E6E6;}
	.st2{fill:#F2F2F2;}
	.st3{fill:#F47421;}
	.st4{fill:#3F3D56;}
	.st5{fill:#FFB7B7;}
	.st6{fill:#2F2E41;}
	.st7{fill:#CBCBCB;}
	.st8{fill:#F0F0F0;}
	.st9{fill:#FFFFFF;}
	.st10{fill:#E4E4E4;}
	.st11{fill:#F37630;}
	.st12{fill:#CACACA;}
</style>
<path class="st0" d="M223,591.6h264.3c4.4,0,8-3.6,8-8v-89.2c0-4.4-3.6-8-8-8H223c-4.4,0-8,3.6-8,8v89.2
	C215.1,588.1,218.6,591.6,223,591.6z"/>
<path id="b0cf38c7-358d-48dc-a444-e9782686dfa5-124" class="st1" d="M1146.6,545.6c-8,2.8-16.8,1.2-23.4-4.1
	c-8.2-6.9-10.8-18.2-12.8-28.7l-6.2-31l12.9,8.9c9.3,6.4,18.8,13,25.3,22.3c6.4,9.3,9.3,21.9,4.1,32"/>
<path id="acbbaa8b-0bc2-4bc9-96d7-93dd88f90f19-125" class="st2" d="M1144.6,585.3c1.6-11.9,3.3-23.9,2.2-35.9
	c-1-10.6-4.3-21-10.9-29.6c-3.5-4.5-7.8-8.4-12.6-11.4c-1.3-0.8-2.4,1.2-1.2,2c8.4,5.3,14.9,13.1,18.5,22.3c4,10.2,4.7,21.4,4,32.3
	c-0.4,6.6-1.3,13.1-2.2,19.7c-0.1,0.6,0.2,1.2,0.8,1.4C1143.8,586.3,1144.4,585.9,1144.6,585.3L1144.6,585.3z"/>
<path id="bed63620-84ae-4c66-a7c8-0d9b30f8c1e7-126" class="st1" d="M1132.9,566.3c-3.4,5.2-9.3,8.2-15.5,8
	c-7.9-0.4-14.4-5.9-20.3-11.1l-17.5-15.4l11.5-0.6c8.3-0.4,16.8-0.8,24.7,1.8s15.2,8.7,16.7,16.9"/>
<path id="fc4eb8ca-daad-4589-b224-2c71eec1c546-127" class="st2" d="M1149.2,592.1c-7.8-13.9-16.9-29.3-33.2-34.2
	c-4.5-1.4-9.3-1.9-14-1.4c-1.5,0.1-1.1,2.4,0.4,2.3c7.9-0.7,15.7,1.4,22.3,5.9c6.3,4.3,11.2,10.2,15.3,16.5
	c2.5,3.9,4.8,7.9,7.1,11.9C1147.8,594.3,1150,593.4,1149.2,592.1z"/>
<path id="ec83fa9a-7bb4-4b90-a90b-e1cec4444963-128" class="st1" d="M84.3,551.8c6.1,5.5,14.6,7.3,22.4,5
	c9.9-3.1,16.4-12.3,22.1-20.9l17-25.4l-14.9,3.2c-10.7,2.3-21.6,4.7-30.8,10.6s-16.4,16.2-15.5,27.1"/>
<path id="e32935a9-e392-46b4-9a67-68c65f1cc9fa-129" class="st2" d="M72.2,590.1c5.3-20.3,11.7-42.9,30.7-54.6
	c5.3-3.3,11.1-5.5,17.2-6.5c1.9-0.3,2.2,2.7,0.3,3c-10.2,1.8-19.5,7.1-26.3,15c-6.5,7.5-10.8,16.7-13.9,26.1
	c-1.9,5.8-3.5,11.6-5,17.5C74.8,592.5,71.7,592,72.2,590.1z"/>
<path class="st0" d="M510.8,365.5h264.3c4.4,0,8-3.6,8-8v-89.2c0-4.4-3.6-8-8-8H510.8c-4.4,0-8,3.6-8,8v89.2
	C502.9,362,506.4,365.5,510.8,365.5z"/>
<rect x="671.7" y="284.3" class="st3" width="70.1" height="8"/>
<circle class="st3" cx="579.3" cy="289.1" r="4.8"/>
<circle class="st3" cx="563.4" cy="289.1" r="4.8"/>
<circle class="st3" cx="547.5" cy="289.1" r="4.8"/>
<path class="st0" d="M510.8,478.6h264.3c4.4,0,8-3.6,8-8v-89.2c0-4.4-3.6-8-8-8H510.8c-4.4,0-8,3.6-8,8v89.2
	C502.9,475,506.4,478.6,510.8,478.6z"/>
<rect x="671.7" y="397.4" class="st3" width="70.1" height="8"/>
<circle class="st3" cx="579.3" cy="402.2" r="4.8"/>
<circle class="st3" cx="563.4" cy="402.2" r="4.8"/>
<circle class="st3" cx="547.5" cy="402.2" r="4.8"/>
<path class="st0" d="M510.8,591.6h264.3c4.4,0,8-3.6,8-8v-89.2c0-4.4-3.6-8-8-8H510.8c-4.4,0-8,3.6-8,8v89.2
	C502.9,588.1,506.4,591.6,510.8,591.6z"/>
<rect x="671.7" y="510.4" class="st3" width="70.1" height="8"/>
<circle class="st3" cx="579.3" cy="515.2" r="4.8"/>
<circle class="st3" cx="563.4" cy="515.2" r="4.8"/>
<circle class="st3" cx="547.5" cy="515.2" r="4.8"/>
<path class="st4" d="M610.5,173.4l0.3-0.2l0,0c1.6-1.2,3.8-0.8,5,0.7v0l59.5,80.1h6.5v-1.5c0-0.8,0.6-1.4,1.4-1.4h3.9
	c0.8,0,1.4,0.6,1.4,1.4v1.5h2.3v-1.5c0-0.8,0.6-1.4,1.4-1.4h3.9c0.8,0,1.4,0.6,1.4,1.4v1.5h2.3v-1.5c0-0.8,0.6-1.4,1.4-1.4h3.9
	c0.8,0,1.4,0.6,1.4,1.4v1.5h2.3v-1.5c0-0.8,0.6-1.4,1.4-1.4h3.9c0.8,0,1.4,0.6,1.4,1.4v1.5h2.3v-1.5c0-0.8,0.6-1.4,1.4-1.4h3.9
	c0.8,0,1.4,0.6,1.4,1.4c0,0,0,0,0,0v1.5h2.3v-1.5c0-0.8,0.6-1.4,1.4-1.4h3.9c0.8,0,1.4,0.6,1.4,1.4v1.5h2.3v-1.5
	c0-0.8,0.6-1.4,1.4-1.4h3.9c0.8,0,1.4,0.6,1.4,1.4v1.5h2.3v-1.5c0-0.8,0.6-1.4,1.4-1.4h3.9c0.8,0,1.4,0.6,1.4,1.4v1.5h2.3v-1.5
	c0-0.8,0.6-1.4,1.4-1.4h3.9c0.8,0,1.4,0.6,1.4,1.4v1.5h2.3v-1.5c0-0.8,0.6-1.4,1.4-1.4h3.9c0.8,0,1.4,0.6,1.4,1.4v1.5h2.8
	c2,0,3.6,1.6,3.6,3.6c0,0,0,0,0,0v3.4c0,2-1.6,3.6-3.6,3.6c0,0,0,0,0,0h-96.8c-2.5,0-4.7-1.8-5.2-4.2l0,0l-60.9-82l0,0
	C608.6,176.8,608.9,174.5,610.5,173.4z"/>
<polygon class="st5" points="986.5,561.3 974.5,567.4 945,524 962.8,514.9 "/>
<path class="st6" d="M987.6,555.8l-23.7,12.1l0,0c-8.3,4.3-11.6,14.5-7.4,22.8l0.3,0.5l38.8-19.8L987.6,555.8z"/>
<polygon class="st5" points="847.7,578.1 834.2,578.1 827.8,526 847.7,526 "/>
<path class="st6" d="M851.1,573.7l-26.6,0h0c-9.4,0-16.9,7.6-16.9,16.9v0.6l43.5,0L851.1,573.7z"/>
<path class="st6" d="M910.8,153.3c0,0,9-6.9,9,10l1.4,55.9L905.4,272l-9.3-17.1l3.8-37.1L910.8,153.3z"/>
<path class="st6" d="M814.1,306.2c0,0-10.5,51.1,2.8,93l7.3,161.1l26.9-2.1l9.4-119.5l9.1-59.4l18.9,54.2l62.2,114.6l28.7-22.4
	c0,0-31.8-86.6-55.2-104.8l-11.8-134L814.1,306.2z"/>
<ellipse transform="matrix(0.8775 -0.4797 0.4797 0.8775 77.5976 412.4638)" class="st5" cx="846" cy="54.4" rx="30.7" ry="30.7"/>
<path class="st6" d="M848.2,60.9c-3.7,0.5-6.5-3.3-7.7-6.8s-2.3-7.5-5.5-9.4c-4.4-2.6-10,0.5-15-0.3c-5.6-1-9.3-6.9-9.6-12.7
	s2-11.2,4.2-16.5l0.8,6.5c-0.2-4.5,1.9-8.8,5.7-11.4l-1,9.6c0.9-5.6,6.1-9.3,11.7-8.4c0,0,0,0,0,0l-0.2,5.7c6.5-0.8,13.1-1.6,19.6-1
	s13.1,2.7,18.1,7c7.4,6.4,10.1,17,9.2,26.8s-4.9,19-9.1,27.8c-1.1,2.2-2.5,4.8-5,5c-2.2,0.3-4.2-1.6-4.9-3.7
	c-0.5-2.2-0.5-4.4,0.1-6.6c0.6-3.3,1.4-6.7,0.8-10c-0.6-3.3-3-6.6-6.3-7s-6.7,3.4-5.1,6.3L848.2,60.9z"/>
<polygon class="st7" points="812.2,319.9 914.6,313.3 906.9,281.4 813.3,302.3 "/>
<path class="st6" d="M875.4,96.2l-6.4-8.9c0,0-7.2,2.4-26.4,12l-1.4,8.4L807.8,313l60.7-2.6L885,310l5.4-12.1l6.7,11.9l16.1-0.3
	l16.4-9.5l-16.2-49.5l-5.2-45.2l8.1-42.6c0,0,10.2-39.1-29-60.2L875.4,96.2z"/>
<path class="st5" d="M738.6,251.6c5.6,1.4,11.3-2,12.7-7.6c0.2-0.6,0.3-1.2,0.3-1.8l36-9.6l-14.5-12.9l-32,11.1
	c-5.8,0-10.6,4.7-10.6,10.5C730.6,246.2,733.9,250.5,738.6,251.6L738.6,251.6z"/>
<path class="st6" d="M754.8,246.2c1.5,0.8,3.3,1,5,0.4l59.2-22.5c14.4-5.1,26.5-15.3,34-28.7l24.7-44c7.3-8.1,6.6-20.6-1.5-27.9
	s-20.6-6.6-27.9,1.5c0,0,0,0,0,0.1l-42.7,67.7l-53.8,31.5c-2.2,1.4-3.2,4-2.6,6.5l2.7,11.3c0.3,1.2,0.9,2.3,1.9,3.2
	C753.9,245.7,754.3,246,754.8,246.2z"/>
<path class="st7" d="M1.3,593h1239.4c0.7,0,1.3-0.6,1.3-1.3s-0.6-1.3-1.3-1.3H1.3c-0.7,0-1.3,0.6-1.3,1.3S0.6,593,1.3,593z"/>
<g>
	<path class="st8" d="M433.3,189.9c1.6-6.5,0.1-14.1-5.1-18.3c-0.1,7.3-2.8,14.3-7.5,19.7c-1.8,2.1-4.1,4.3-4.2,7.1
		c-0.1,1.7,0.8,3.4,2,4.7c1.2,1.3,2.7,2.3,4.1,3.2l0.2,0.4C427.5,201.9,431.7,196.4,433.3,189.9z"/>
	<path class="st9" d="M428.2,171.7c2,5.2,2.3,10.8,0.8,16.2c-0.3,1.2-0.8,2.3-1.4,3.3c-0.6,1-1.5,1.7-2.6,2.2c-1,0.5-2,0.9-2.8,1.6
		c-0.8,0.8-1.3,1.8-1.3,3c0,1.4,0.4,2.7,0.9,4c0.6,1.4,1.2,2.9,1,4.5c0,0.2,0.3,0.2,0.3,0c0.2-2.7-1.6-5-1.9-7.6
		c-0.1-1.2,0.1-2.5,1-3.4c0.8-0.8,1.9-1.2,2.9-1.7c1-0.5,1.9-1.2,2.6-2.1c0.7-1,1.2-2.1,1.5-3.2c0.8-2.6,1.1-5.2,1-7.9
		c-0.1-3.1-0.7-6.1-1.8-8.9C428.4,171.3,428.1,171.5,428.2,171.7L428.2,171.7z"/>
	<path class="st9" d="M429.6,186.1c1.9,0.2,3.7-0.9,4.3-2.8c0.1-0.2-0.2-0.3-0.3-0.1c-0.5,1.7-2.2,2.8-4,2.6
		C429.4,185.8,429.4,186.1,429.6,186.1L429.6,186.1z"/>
	<path class="st9" d="M425.6,193.1c-1.2-1.5-1.8-3.4-1.6-5.3c0-0.2-0.3-0.2-0.3,0c-0.2,2,0.5,4,1.7,5.5
		C425.5,193.5,425.7,193.3,425.6,193.1z"/>
	<path class="st9" d="M429.7,177.5c-0.7,0.1-1.5-0.3-1.9-0.9c-0.1-0.2-0.3,0-0.2,0.2c0.5,0.7,1.3,1,2.1,1c0.1,0,0.1-0.1,0.2-0.1
		C429.9,177.6,429.8,177.6,429.7,177.5L429.7,177.5z"/>
	<path class="st8" d="M406,175.8c0.1,0.1,0.1,0.2,0.2,0.3c0.9,1.3,1.8,2.7,2.5,4.1c0.1,0.1,0.1,0.2,0.2,0.3c1.7,3.5,2.7,7.2,3,11
		c0.1,1.5,0.1,3.1,0,4.6c-0.2,2.1-0.5,4.4,0.1,6.3c0.1,0.2,0.1,0.4,0.2,0.6l10.2,3.9c0,0,0.1,0,0.1,0l0.4,0.2c0-0.1,0-0.2,0-0.2
		c0,0,0-0.1,0-0.1c0,0,0-0.1,0-0.1c0,0,0,0,0,0c0,0,0-0.1,0-0.1c0.1-0.5,0.1-0.9,0.2-1.4c0,0,0,0,0,0c0.4-3.5,0.4-7,0-10.5
		c0-0.1,0-0.2,0-0.3c-0.2-1.6-0.6-3.1-1-4.6c-0.3-0.8-0.6-1.6-0.9-2.4c-0.9-2-2.1-3.9-3.5-5.6c-2.9-3.3-6.9-5.7-11.2-6
		C406.3,175.8,406.1,175.8,406,175.8z"/>
	<path class="st9" d="M406,175.9c4.7,2.9,8.3,7.3,10.4,12.4c0.5,1.1,0.8,2.3,0.9,3.4c0.1,1.2-0.2,2.3-0.7,3.3c-0.5,1-1.1,1.9-1.3,3
		c-0.2,1.1,0,2.3,0.7,3.2c0.8,1.1,2,1.9,3.2,2.6c1.3,0.8,2.7,1.6,3.5,2.9c0.1,0.2,0.3,0,0.2-0.2c-1.5-2.3-4.3-3-6.1-4.9
		c-0.8-0.9-1.4-2.1-1.2-3.3c0.2-1.1,0.8-2.1,1.3-3.1c0.5-1,0.8-2.1,0.8-3.2c0-1.2-0.3-2.4-0.7-3.5c-0.9-2.5-2.3-4.8-3.9-6.9
		c-1.9-2.4-4.2-4.4-6.8-6.1C406,175.5,405.8,175.8,406,175.9L406,175.9z"/>
	<path class="st9" d="M415.8,186.6c1.7-1,2.4-3,1.7-4.8c-0.1-0.2-0.3-0.1-0.3,0.1c0.6,1.7-0.1,3.6-1.6,4.5
		C415.5,186.5,415.7,186.7,415.8,186.6z"/>
	<path class="st9" d="M416.9,194.6c-1.9-0.5-3.5-1.7-4.5-3.3c-0.1-0.2-0.3,0-0.2,0.2c1.1,1.7,2.7,2.9,4.7,3.4
		C417,195,417,194.7,416.9,194.6z"/>
	<path class="st9" d="M410.8,179.6c-0.6,0.5-1.3,0.7-2.1,0.5c-0.2,0-0.2,0.2-0.1,0.3c0.8,0.2,1.7,0,2.3-0.5c0.1,0,0.1-0.1,0-0.2
		C411,179.6,410.9,179.6,410.8,179.6L410.8,179.6z"/>
	<path class="st10" d="M392.6,322.3c-34.1,0-61.9-27.8-61.9-61.9s27.8-61.9,61.9-61.9c3.6,0,7.2,0.3,10.8,0.9c0.2,0,0.3,0.2,0.3,0.4
		s-0.2,0.3-0.4,0.3c0,0,0,0,0,0c-3.5-0.6-7.1-0.9-10.6-0.9c-33.8,0-61.2,27.5-61.2,61.2s27.5,61.2,61.2,61.2s61.2-27.5,61.2-61.2
		c0-15.3-5.7-30-16-41.2c-0.1-0.1-0.1-0.4,0-0.5c0.1-0.1,0.4-0.1,0.5,0c10.4,11.4,16.2,26.3,16.1,41.7
		C454.5,294.6,426.7,322.3,392.6,322.3z"/>
	<circle class="st11" cx="419.9" cy="207.5" r="12.2"/>
	<path class="st9" d="M418.2,213.9c-0.4,0-0.8-0.2-1.1-0.5l-3.3-4.5c-0.5-0.6-0.3-1.5,0.3-1.9s1.5-0.3,1.9,0.3l2.2,2.9l5.6-8.4
		c0.4-0.6,1.3-0.8,1.9-0.4c0.6,0.4,0.8,1.3,0.4,1.9l-6.7,10C419.1,213.7,418.7,213.9,418.2,213.9
		C418.2,213.9,418.2,213.9,418.2,213.9z"/>
	<path class="st4" d="M391,250.9l-18.9-52.5l0.5-0.2l-3.5-9.7l-0.5,0.2l-5.8-16.1c-0.9-2.5-3.7-3.8-6.2-2.9c0,0,0,0,0,0l-34.1,12.3
		c-2.5,0.9-3.8,3.7-2.9,6.2c0,0,0,0,0,0l4,11.2l-0.8,0.3l2.6,6.7l0.6-0.2l0.5,1.5l-0.6,0.2l2.6,6.7l0.5-0.2l18.7,52.1
		c0.9,2.5,3.7,3.8,6.2,2.9c0,0,0,0,0,0l34.1-12.3C390.6,256.2,391.9,253.4,391,250.9z"/>
	<path class="st9" d="M352.1,267.6c-1,0-1.9-0.6-2.2-1.5l-28.5-79.2c-0.4-1.2,0.2-2.6,1.4-3l7.3-2.6l0,0.3c-0.1,1.5,1.1,2.7,2.6,2.8
		c0.3,0,0.7,0,1-0.2l16.1-5.8c0.8-0.4,1.4-1.1,1.5-1.9c0.2-0.8-0.1-1.7-0.6-2.3l-0.2-0.2l7.5-2.7c1.2-0.4,2.6,0.2,3,1.4l27.1,75.5
		c1.2,3.2-0.5,6.8-3.7,7.9l-31.6,11.3C352.6,267.6,352.4,267.6,352.1,267.6z"/>
	<circle class="st11" cx="349.3" cy="202.3" r="9.2"/>
	<path class="st1" d="M372.2,215.7l-32,11.5c-0.4,0.2-0.9-0.1-1-0.5c-0.2-0.4,0.1-0.9,0.5-1c0,0,0,0,0,0l32-11.5
		c0.4-0.2,0.9,0.1,1,0.5C372.8,215.1,372.6,215.5,372.2,215.7z"/>
	<path class="st1" d="M362.7,223l-10.5,3.8c-0.4,0.2-0.9-0.1-1-0.5c-0.2-0.4,0.1-0.9,0.5-1c0,0,0,0,0,0l10.5-3.8
		c0.4-0.2,0.9,0.1,1,0.5C363.3,222.4,363.1,222.8,362.7,223z"/>
	<path class="st1" d="M365.2,229.9l-10.5,3.8c-0.4,0.2-0.9-0.1-1-0.5c-0.2-0.4,0.1-0.9,0.5-1c0,0,0,0,0,0l10.5-3.8
		c0.4-0.2,0.9,0.1,1,0.5C365.8,229.3,365.6,229.8,365.2,229.9L365.2,229.9z"/>
	<path class="st1" d="M366.5,233.5l-10.5,3.8c-0.4,0.2-0.9-0.1-1-0.5c-0.2-0.4,0.1-0.9,0.5-1c0,0,0,0,0,0l10.5-3.8
		c0.4-0.2,0.9,0.1,1,0.5C367.1,232.9,366.9,233.3,366.5,233.5C366.5,233.5,366.5,233.5,366.5,233.5L366.5,233.5z"/>
	<path class="st1" d="M369.8,224.3l-22.3,8c-0.4,0.2-0.9-0.1-1-0.5s0.1-0.9,0.5-1c0,0,0,0,0,0l22.3-8c0.4-0.2,0.9,0.1,1,0.5
		C370.5,223.7,370.3,224.1,369.8,224.3C369.8,224.3,369.8,224.3,369.8,224.3z"/>
	<path class="st11" d="M365.3,242.1l-3.8,1.4c-0.7,0.3-1.5-0.1-1.8-0.8c-0.3-0.7,0.1-1.5,0.8-1.8l3.8-1.4c0.7-0.3,1.5,0.1,1.8,0.8
		C366.4,241.1,366.1,241.9,365.3,242.1z"/>
	<circle class="st9" cx="335.3" cy="181.1" r="0.5"/>
	<path class="st8" d="M274.2,210.9c6-7,15.6-11.4,24.5-9.1c-8,6-13.7,14.6-15.9,24.3c-0.9,3.8-1.4,8-4.5,10.4
		c-1.9,1.5-4.5,1.9-6.8,1.6c-2.4-0.3-4.7-1.1-6.9-2l-0.6,0.1C265.4,227.1,268.2,217.9,274.2,210.9z"/>
	<path class="st9" d="M298.7,202c-7.4,2-13.9,6.2-18.7,12.1c-1.1,1.3-1.9,2.7-2.5,4.2c-0.6,1.5-0.7,3.1-0.4,4.7
		c0.2,1.5,0.6,2.9,0.5,4.4c-0.2,1.6-1,3-2.2,3.9c-1.5,1.2-3.4,1.7-5.2,2.2c-2,0.5-4.2,1-5.8,2.5c-0.2,0.2-0.4-0.1-0.3-0.3
		c2.8-2.4,6.9-2.2,10.1-4c1.5-0.8,2.7-2.1,3-3.9c0.2-1.5-0.2-3-0.4-4.5c-0.3-1.5-0.2-3.1,0.2-4.6c0.5-1.5,1.3-3,2.4-4.3
		c2.3-2.9,5-5.4,8-7.5c3.5-2.4,7.3-4.2,11.4-5.2C298.9,201.5,298.9,201.9,298.7,202L298.7,202z"/>
	<path class="st9" d="M281.4,212.1c-1.8-1.9-2-4.9-0.3-7c0.2-0.2,0.5,0,0.3,0.2c-1.5,2-1.4,4.7,0.3,6.5
		C281.9,212,281.6,212.3,281.4,212.1L281.4,212.1z"/>
	<path class="st9" d="M276.8,222.2c2.6,0.1,5.2-0.8,7.2-2.5c0.2-0.2,0.5,0.1,0.3,0.3c-2.1,1.8-4.8,2.7-7.5,2.6
		C276.5,222.6,276.6,222.2,276.8,222.2L276.8,222.2z"/>
	<path class="st9" d="M290.8,205c0.5,0.9,1.5,1.4,2.5,1.5c0.3,0,0.2,0.4,0,0.4c-1.1,0-2.2-0.7-2.8-1.6c-0.1-0.1-0.1-0.2,0-0.3
		C290.6,204.9,290.7,204.9,290.8,205L290.8,205z"/>
	<path class="st8" d="M311.9,230c-0.2,0-0.3,0-0.5,0c-2.2,0-4.4,0.2-6.5,0.5c-0.2,0-0.3,0.1-0.5,0.1c-5.2,0.9-10.2,2.8-14.7,5.5
		c-1.8,1.1-3.5,2.3-5.1,3.7c-2.2,1.9-4.5,4.1-7.1,5.1c-0.3,0.1-0.6,0.2-0.8,0.3l-12.5-8.2c0,0,0-0.1-0.1-0.1l-0.5-0.3
		c0.1-0.1,0.2-0.2,0.2-0.2c0,0,0.1-0.1,0.1-0.1c0,0,0.1-0.1,0.1-0.1c0,0,0,0,0,0c0,0,0.1-0.1,0.1-0.1c0.5-0.4,0.9-0.9,1.4-1.3
		c0,0,0,0,0,0c3.6-3.2,7.5-6.2,11.7-8.4c0.1-0.1,0.3-0.1,0.4-0.2c1.9-1,3.9-1.9,5.9-2.6c1.1-0.4,2.3-0.7,3.4-1c3-0.7,6-0.9,9.1-0.6
		c6.1,0.6,11.9,3.1,15.7,7.7C311.7,229.7,311.8,229.8,311.9,230z"/>
	<path class="st9" d="M311.8,230.1c-7.1-2.9-14.8-3.4-22.2-1.6c-1.6,0.4-3.1,1-4.5,1.8c-1.3,0.9-2.4,2.1-3.2,3.5
		c-0.7,1.3-1.3,2.7-2.3,3.9c-1.1,1.1-2.6,1.8-4.1,1.8c-1.9,0-3.7-0.7-5.5-1.4c-1.9-0.8-4-1.7-6.1-1.5c-0.3,0-0.3-0.4,0-0.4
		c3.7-0.2,6.8,2.4,10.5,2.8c1.7,0.2,3.4-0.1,4.7-1.3c1.1-1.1,1.7-2.5,2.4-3.9c0.7-1.4,1.7-2.6,3-3.5c1.4-0.9,2.9-1.6,4.4-2
		c3.6-1,7.2-1.4,10.9-1.2c4.2,0.2,8.3,1.1,12.2,2.7C312.2,229.8,312,230.2,311.8,230.1L311.8,230.1z"/>
	<path class="st9" d="M291.9,227.8c-0.3-2.6,1.4-5.1,4-5.8c0.3-0.1,0.4,0.3,0.1,0.4c-2.4,0.7-4,3-3.7,5.4
		C292.4,228,292,228,291.9,227.8L291.9,227.8z"/>
	<path class="st9" d="M282.2,233.1c2,1.7,4.6,2.5,7.3,2.4c0.3,0,0.3,0.4,0,0.4c-2.7,0.2-5.4-0.7-7.5-2.5
		C281.7,233.2,282,232.9,282.2,233.1L282.2,233.1z"/>
	<path class="st9" d="M303.7,227.8c-0.1,1,0.3,2,1.1,2.7c0.2,0.2-0.1,0.5-0.3,0.3c-0.9-0.7-1.4-1.8-1.2-3c0-0.1,0.1-0.2,0.2-0.2
		C303.6,227.6,303.7,227.6,303.7,227.8z"/>
	<path class="st8" d="M452.8,345.6c6.5,1.6,14.1,0.1,18.3-5.1c-7.3-0.1-14.3-2.8-19.7-7.5c-2.1-1.8-4.3-4.1-7.1-4.2
		c-1.7-0.1-3.4,0.8-4.7,2c-1.3,1.2-2.3,2.7-3.2,4.1l-0.4,0.2C440.8,339.8,446.3,344,452.8,345.6z"/>
	<path class="st9" d="M471,340.4c-5.2,2-10.8,2.3-16.2,0.8c-1.2-0.3-2.3-0.8-3.3-1.4c-1-0.6-1.7-1.5-2.2-2.6c-0.5-1-0.9-2-1.6-2.8
		c-0.8-0.8-1.8-1.3-3-1.3c-1.4,0-2.7,0.4-4,0.9c-1.4,0.6-2.9,1.2-4.5,1c-0.2,0-0.2,0.3,0,0.3c2.7,0.2,5-1.6,7.6-1.9
		c1.2-0.1,2.5,0.1,3.4,1c0.8,0.8,1.2,1.9,1.7,2.9c0.5,1,1.2,1.9,2.1,2.6c1,0.7,2.1,1.2,3.2,1.5c2.6,0.8,5.2,1.1,7.9,1
		c3.1-0.1,6.1-0.7,8.9-1.8C471.4,340.6,471.2,340.3,471,340.4L471,340.4z"/>
	<path class="st9" d="M456.6,341.8c-0.2,1.9,0.9,3.7,2.8,4.3c0.2,0.1,0.3-0.2,0.1-0.3c-1.7-0.5-2.8-2.2-2.6-4
		C456.9,341.6,456.6,341.6,456.6,341.8L456.6,341.8z"/>
	<path class="st9" d="M449.5,337.8c1.5-1.2,3.4-1.8,5.3-1.6c0.2,0,0.2-0.3,0-0.3c-2-0.2-4,0.5-5.5,1.7
		C449.2,337.7,449.4,337.9,449.5,337.8L449.5,337.8z"/>
	<path class="st9" d="M465.1,342c-0.1-0.7,0.3-1.5,0.9-1.9c0.2-0.1,0-0.3-0.2-0.2c-0.7,0.5-1,1.3-1,2.1c0,0.1,0.1,0.1,0.1,0.2
		C465.1,342.1,465.1,342.1,465.1,342L465.1,342z"/>
	<path class="st8" d="M466.9,318.3c-0.1,0.1-0.2,0.1-0.3,0.2c-1.3,0.9-2.7,1.8-4.1,2.5c-0.1,0.1-0.2,0.1-0.3,0.2
		c-3.5,1.7-7.2,2.7-11,3c-1.5,0.1-3.1,0.1-4.6,0c-2.1-0.2-4.4-0.5-6.3,0.1c-0.2,0.1-0.4,0.1-0.6,0.2l-3.9,10.2c0,0,0,0.1,0,0.1
		l-0.2,0.4c0.1,0,0.2,0,0.2,0c0,0,0.1,0,0.1,0c0,0,0.1,0,0.1,0c0,0,0,0,0,0c0,0,0.1,0,0.1,0c0.5,0.1,0.9,0.1,1.4,0.2c0,0,0,0,0,0
		c3.5,0.4,7,0.4,10.5,0c0.1,0,0.2,0,0.3,0c1.6-0.2,3.1-0.6,4.6-1c0.8-0.3,1.6-0.6,2.4-0.9c2-0.9,3.9-2.1,5.6-3.5
		c3.3-2.9,5.7-6.9,6-11.2C466.9,318.5,466.9,318.4,466.9,318.3z"/>
	<path class="st9" d="M466.8,318.3c-2.9,4.7-7.3,8.3-12.4,10.4c-1.1,0.5-2.3,0.8-3.4,0.9c-1.2,0.1-2.3-0.2-3.3-0.7
		c-1-0.5-1.9-1.1-3-1.3c-1.1-0.2-2.3,0-3.2,0.7c-1.1,0.8-1.9,2-2.6,3.2c-0.8,1.3-1.6,2.7-2.9,3.5c-0.2,0.1,0,0.3,0.2,0.2
		c2.3-1.5,3-4.3,4.9-6.1c0.9-0.8,2.1-1.4,3.3-1.2c1.1,0.2,2.1,0.8,3.1,1.3c1,0.5,2.1,0.8,3.2,0.8c1.2,0,2.4-0.3,3.5-0.7
		c2.5-0.9,4.8-2.3,6.9-3.9c2.4-1.9,4.4-4.2,6.1-6.8C467.2,318.2,466.9,318.1,466.8,318.3L466.8,318.3z"/>
	<path class="st9" d="M456.1,328.1c1,1.7,3,2.4,4.8,1.7c0.2-0.1,0.1-0.3-0.1-0.3c-1.7,0.6-3.6-0.1-4.5-1.6
		C456.2,327.8,456,327.9,456.1,328.1z"/>
	<path class="st9" d="M448.1,329.1c0.5-1.9,1.7-3.5,3.3-4.5c0.2-0.1,0-0.3-0.2-0.2c-1.7,1.1-2.9,2.7-3.4,4.7
		C447.7,329.2,448,329.3,448.1,329.1L448.1,329.1z"/>
	<path class="st9" d="M463,323.1c-0.5-0.6-0.7-1.3-0.5-2.1c0-0.2-0.2-0.2-0.3-0.1c-0.2,0.8,0,1.7,0.5,2.3c0,0.1,0.1,0.1,0.2,0
		C463.1,323.2,463.1,323.1,463,323.1L463,323.1z"/>
	<path class="st4" d="M478.8,283.2l-9.9,16.7l0.4,0.2l-3.4,6.4l-0.7-0.4l-2.2,3.7l0.5,0.3l-3.6,6.2l-0.6-0.4l-32.3,54.3
		c-1.8,3-5.6,3.9-8.6,2.2l-60-35.7c-3-1.8-3.9-5.6-2.2-8.6l51.7-87.1c1.8-3,5.6-3.9,8.6-2.2l60,35.7
		C479.6,276.4,480.6,280.2,478.8,283.2z"/>
	<path class="st9" d="M420.7,369.1l-60.2-35.8c-0.9-0.5-1.2-1.7-0.7-2.6l52.1-87.6c0.5-0.9,1.7-1.2,2.6-0.7l60.2,35.8
		c0.9,0.5,1.2,1.7,0.7,2.6l-52.1,87.6C422.8,369.3,421.6,369.6,420.7,369.1z"/>
	<circle class="st9" cx="445.4" cy="258.3" r="0.5"/>
	<path class="st1" d="M442.1,321.6l-50.3-29.9c-0.7-0.4-0.9-1.2-0.5-1.9s1.2-0.9,1.9-0.5c0,0,0,0,0,0l50.3,29.9
		c0.7,0.4,0.9,1.2,0.5,1.9C443.6,321.8,442.8,322,442.1,321.6C442.1,321.6,442.1,321.6,442.1,321.6z"/>
	<path class="st1" d="M422,317l-16.5-9.8c-0.7-0.4-0.9-1.2-0.5-1.9c0.4-0.7,1.2-0.9,1.9-0.5c0,0,0,0,0,0l16.5,9.8
		c0.7,0.4,0.9,1.2,0.5,1.9C423.6,317.2,422.7,317.4,422,317z"/>
	<path class="st1" d="M415.5,327.9l-16.5-9.8c-0.7-0.4-0.9-1.2-0.5-1.9c0.4-0.7,1.2-0.9,1.9-0.5l16.5,9.8c0.7,0.4,0.9,1.2,0.5,1.9
		S416.2,328.3,415.5,327.9C415.5,327.9,415.5,327.9,415.5,327.9z"/>
	<path class="st1" d="M412.2,333.5l-16.5-9.8c-0.7-0.4-0.9-1.2-0.5-1.9c0.4-0.7,1.2-0.9,1.9-0.5l0,0l16.5,9.8
		c0.7,0.4,0.9,1.2,0.5,1.9S412.9,333.9,412.2,333.5C412.2,333.5,412.2,333.5,412.2,333.5L412.2,333.5z"/>
	<path class="st1" d="M428.1,327.9L393,307c-0.7-0.4-0.9-1.2-0.5-1.9c0.4-0.7,1.2-0.9,1.9-0.5l35.1,20.9c0.7,0.4,0.9,1.2,0.5,1.9
		C429.6,328.1,428.8,328.3,428.1,327.9C428.1,327.9,428.1,327.9,428.1,327.9z"/>
	<path class="st11" d="M421.4,354.5l-6-3.6c-1.1-0.7-1.5-2.1-0.8-3.2c0.7-1.1,2.1-1.5,3.2-0.8l6,3.6c1.1,0.7,1.5,2.1,0.8,3.2
		C424,354.8,422.6,355.2,421.4,354.5L421.4,354.5z"/>
	<circle class="st11" cx="432.6" cy="284.3" r="12.3"/>
	<path class="st12" d="M230.8,334.3h166.6v-96.4c0-1.5-1.2-2.7-2.7-2.7H233.5c-1.5,0-2.7,1.2-2.7,2.7V334.3z"/>
	<rect x="236" y="238.9" class="st9" width="156.3" height="88.7"/>
	<path class="st4" d="M230.7,331.7v11.9c0,2.1,1.7,3.8,3.8,3.8c0,0,0,0,0,0h61.5v23.5h-0.8c-0.3,0-0.5,0.2-0.5,0.5c0,0,0,0,0,0v1.6
		c0,0.3,0.2,0.5,0.5,0.5c0,0,0,0,0,0h38.2c0.3,0,0.5-0.2,0.5-0.5c0,0,0,0,0,0v-1.6c0-0.3-0.2-0.5-0.5-0.5c0,0,0,0,0,0h-0.8v-23.5
		h61.5c2.1,0,3.8-1.7,3.8-3.8v0v-11.9L230.7,331.7z"/>
	<path class="st1" d="M369.6,268.6h-74c-1,0-1.8-0.8-1.8-1.8c0-1,0.8-1.8,1.8-1.8h74c1,0,1.8,0.8,1.8,1.8
		C371.4,267.8,370.6,268.6,369.6,268.6z"/>
	<path class="st1" d="M344.8,276.5h-24.3c-1,0-1.8-0.8-1.8-1.8c0-1,0.8-1.8,1.8-1.8h24.3c1,0,1.8,0.8,1.8,1.8
		C346.6,275.8,345.8,276.5,344.8,276.5z"/>
	<path class="st1" d="M344.8,292.6h-24.3c-1,0-1.8-0.8-1.8-1.8c0-1,0.8-1.8,1.8-1.8h24.3c1,0,1.8,0.8,1.8,1.8
		C346.6,291.9,345.8,292.6,344.8,292.6z"/>
	<path class="st1" d="M344.8,300.9h-24.3c-1,0-1.8-0.8-1.8-1.8c0-1,0.8-1.8,1.8-1.8c0,0,0,0,0,0h24.3c1,0,1.8,0.8,1.8,1.8
		C346.6,300.1,345.8,300.9,344.8,300.9C344.8,300.9,344.8,300.9,344.8,300.9z"/>
	<path class="st1" d="M358.5,284.5h-51.7c-1,0-1.8-0.8-1.8-1.8c0-1,0.8-1.8,1.8-1.8h51.7c1,0,1.8,0.8,1.8,1.8
		C360.2,283.7,359.4,284.5,358.5,284.5z"/>
	<path class="st11" d="M368.4,317.8h-8.8c-1.7,0-3-1.3-3-3s1.3-3,3-3l0,0h8.8c1.7,0,3,1.3,3,3S370.1,317.8,368.4,317.8z"/>
	<circle class="st11" cx="272.3" cy="280.7" r="15.4"/>
	<circle class="st9" cx="314" cy="236.5" r="0.6"/>
</g>
<path class="st0" d="M223,478.6h264.3c4.4,0,8-3.6,8-8v-89.2c0-4.4-3.6-8-8-8H223c-4.4,0-8,3.6-8,8v89.2
	C215.1,475,218.6,478.6,223,478.6z"/>
<rect x="383.8" y="397.4" class="st3" width="70.1" height="8"/>
<circle class="st3" cx="291.5" cy="402.2" r="4.8"/>
<circle class="st3" cx="275.6" cy="402.2" r="4.8"/>
<circle class="st3" cx="259.6" cy="402.2" r="4.8"/>
<rect x="383.8" y="510.4" class="st3" width="70.1" height="8"/>
<circle class="st3" cx="291.5" cy="515.2" r="4.8"/>
<circle class="st3" cx="275.6" cy="515.2" r="4.8"/>
<circle class="st3" cx="259.6" cy="515.2" r="4.8"/>
</svg>
